<mxfile host="app.diagrams.net" agent="Mozilla/5.0 (Windows NT 10.0; Win64; x64) AppleWebKit/537.36 (KHTML, like Gecko) Chrome/127.0.0.0 Safari/537.36 Edg/127.0.0.0" version="24.7.7">
  <diagram name="第 1 页" id="YMVzOnVBkjb3YaSIIPBZ">
    <mxGraphModel dx="2852" dy="1514" grid="1" gridSize="10" guides="1" tooltips="1" connect="1" arrows="1" fold="1" page="1" pageScale="1" pageWidth="2336" pageHeight="1654" math="0" shadow="0">
      <root>
        <mxCell id="0" />
        <mxCell id="1" parent="0" />
        <mxCell id="OfdvTk8gtVBGzMLoXBCN-1" value="&lt;font style=&quot;font-size: 19px;&quot;&gt;PC&lt;/font&gt;" style="rounded=0;whiteSpace=wrap;html=1;" parent="1" vertex="1">
          <mxGeometry x="40" y="810" width="130" height="80" as="geometry" />
        </mxCell>
        <mxCell id="OfdvTk8gtVBGzMLoXBCN-2" value="&lt;font style=&quot;font-size: 20px;&quot;&gt;instruction&amp;nbsp;&lt;/font&gt;&lt;div style=&quot;font-size: 20px;&quot;&gt;&lt;font style=&quot;font-size: 20px;&quot;&gt;memory&lt;/font&gt;&lt;/div&gt;" style="whiteSpace=wrap;html=1;aspect=fixed;" parent="1" vertex="1">
          <mxGeometry x="230" y="770" width="160" height="160" as="geometry" />
        </mxCell>
        <mxCell id="OfdvTk8gtVBGzMLoXBCN-3" value="&lt;font style=&quot;font-size: 18px;&quot;&gt;IF/ID&lt;/font&gt;&lt;div style=&quot;font-size: 18px;&quot;&gt;&lt;font style=&quot;font-size: 18px;&quot;&gt;reg&lt;/font&gt;&lt;/div&gt;" style="rounded=0;whiteSpace=wrap;html=1;" parent="1" vertex="1">
          <mxGeometry x="580" y="370" width="60" height="1010" as="geometry" />
        </mxCell>
        <mxCell id="OfdvTk8gtVBGzMLoXBCN-4" value="&lt;font style=&quot;font-size: 18px;&quot;&gt;ID/EXE&lt;/font&gt;&lt;div style=&quot;font-size: 18px;&quot;&gt;&lt;font style=&quot;font-size: 18px;&quot;&gt;reg&lt;/font&gt;&lt;/div&gt;" style="rounded=0;whiteSpace=wrap;html=1;" parent="1" vertex="1">
          <mxGeometry x="1130" y="370" width="60" height="1010" as="geometry" />
        </mxCell>
        <mxCell id="OfdvTk8gtVBGzMLoXBCN-5" value="&lt;font style=&quot;font-size: 18px;&quot;&gt;EXE/&lt;/font&gt;&lt;div&gt;&lt;font style=&quot;font-size: 18px;&quot;&gt;MEM&lt;/font&gt;&lt;div style=&quot;font-size: 18px;&quot;&gt;&lt;font style=&quot;font-size: 18px;&quot;&gt;reg&lt;/font&gt;&lt;/div&gt;&lt;/div&gt;" style="rounded=0;whiteSpace=wrap;html=1;" parent="1" vertex="1">
          <mxGeometry x="1620" y="370" width="60" height="1010" as="geometry" />
        </mxCell>
        <mxCell id="OfdvTk8gtVBGzMLoXBCN-6" value="&lt;font style=&quot;font-size: 18px;&quot;&gt;MEM/&lt;/font&gt;&lt;div style=&quot;font-size: 18px;&quot;&gt;&lt;font style=&quot;font-size: 18px;&quot;&gt;WB&lt;/font&gt;&lt;/div&gt;&lt;div style=&quot;font-size: 18px;&quot;&gt;&lt;font style=&quot;font-size: 18px;&quot;&gt;reg&lt;/font&gt;&lt;/div&gt;" style="rounded=0;whiteSpace=wrap;html=1;" parent="1" vertex="1">
          <mxGeometry x="2050" y="370" width="60" height="1010" as="geometry" />
        </mxCell>
        <mxCell id="E9-E04KiMw5KiafzeVw2-4" value="mux" style="verticalLabelPosition=middle;verticalAlign=middle;html=1;shape=trapezoid;perimeter=trapezoidPerimeter;whiteSpace=wrap;size=0.23;arcSize=10;flipV=1;labelPosition=center;align=center;rotation=-90;" vertex="1" parent="1">
          <mxGeometry x="440" y="850" width="110" height="32.5" as="geometry" />
        </mxCell>
        <mxCell id="E9-E04KiMw5KiafzeVw2-7" value="" style="shape=stencil(xZVbDoIwEEVX019TqI9vg7qPiqM01pa09bV7BwrGiqhBiAkh6b3M6RDuUMISm/EcSEwzwhYkjiNK8Y7r89Oa2xxS58UTN4KvJXjHOqP3cBYbVzGEysAIV7hsSegcnykulqRaKYQIrWzgPPgI40JhLb14WLX9NVjlyD+AA1M16VUSr77HjibDgKOB+g2xdfe999sfOOw4GurD9QaOumNZgkpbuFmy5ul+Z/RRbZpVrd5WG3hh3G0hpR+8N6+Z82IkG0ZtH/QJPgzaa3INkEI9AO6/igrBemDMOjCegkd/Rkw7EFiImPwHERLGXxFSqe27UKHekis8TNoSWZY1Il2q/gAqhRs=);whiteSpace=wrap;html=1;points=[[0,0,0,0,0],[0,0.2,0,0,0],[0,0.5,0,0,0],[0,0.81,0,0,0],[0,1,0,0,0],[1,0.01,0,3,0],[1,0.5,0,0,0],[1,1,0,0,0]];" vertex="1" parent="1">
          <mxGeometry x="280" y="420" width="60" height="130" as="geometry" />
        </mxCell>
      </root>
    </mxGraphModel>
  </diagram>
</mxfile>
